<?xml version="1.0" encoding="UTF-8"?>
<svg id="Layer_1" data-name="Layer 1" xmlns="http://www.w3.org/2000/svg" viewBox="0 0 342.458431818 529.6502434406">
  <path d="M134.8136961173,488.865194168c-41.160619534.2347634531-115.9993928253-6.4473275333-103.4771897981,25.6709378436,6.2975047064,16.1451878572,50.3792947286,15.1003914346,68.0794185543,15.1003914346,57.1822342406,0,113.0054159515,0,170.1876501921-3.0204745122,13.6155675011,0,46.2974319652,4.5295973847,50.3795423694-18.1208659467,2.7230578746-24.1595862041-34.040947481-18.118389539-49.0155370244-19.6299888193-44.9307025718-1.5113516396-89.8616527843,0-136.1538842934,0" style="fill: #dde3f3;"/>
  <g>
    <g>
      <path d="M35.0969313671,266.5761497376c-6.0144513096,4.2225228258-22.6237175564,9.9638265144-28.9598542224,12.9793482111-10.6673736819,5.0786169792-6.9552385837,9.3858329495,7.4678549715,3.746061978-2.3119742013,1.1753031102-14.6068430043,7.4606735777-12.5028870474,10.4739665075,2.1111375392,3.0061113473,14.1088374218-3.3661810317,16.5488418996-3.7314511723-1.6178371312,1.4075901555-13.7339093005,9.2937105818-12.55860622,11.6032084338,1.7557730385,2.9021022225,10.9068423037-.9672848606,17.8331069176-6.9453331285-1.8379897731,3.2671247224-11.9853178442,15.051853843-5.2527083101,14.5439426169,4.4112249837-.4933004205,9.3712219071-7.3905912389,12.1403409644-9.958873699,2.7037418948,5.9104423368,6.0892388213,9.7218814789,8.3722390528,1.572023629,1.9348416591-7.1100142427,3.1826791383-13.2817175953,6.2732359112-20.3964370127" style="fill: #eec3a3;"/>
      <path d="M284.587822599,141.4789272518c2.9021021492-6.7568785,14.0338022694-20.3627578676,17.8402884999-26.253884224,6.423306216-9.92717568,1.0036880289-11.6467932099-8.3214726956.7305402813,1.3590525296-2.2153943581,8.5247857653-14.021668226,5.1558807702-15.4825011478-3.3760865773-1.4462221162-10.2491084264,10.275606248-12.1329117414,11.8694222651.6408943052-2.0507132438,6.814857027-15.1221838226,4.6068611896-16.4691019887-3.0179980282-1.5527076487-8.7786175516,6.5488602504-11.5403073858,15.2720064905-.1475938972-3.7435855702,2.3070213859-19.1027616129-3.1559339354-15.1340705797-3.4947065048,2.7349447005-4.0991976172,11.2114407304-5.1100672283,14.8510171758-5.4025309742-3.6130788827-10.2830052691-5.0786169792-7.9514973896,3.0618305213,2.0821635695,7.0664294666,4.2562018635,12.9696902209,5.351764617,20.6502688054" style="fill: #eec3a3;"/>
    </g>
    <g>
      <path d="M133.4714831598,489.5811236437s5.9998405044,21.6660912575-5.0035816985,20.8728978606c-5.6276364315-.3967205189-33.7652975823-1.8355134118-48.7205968709-3.3131859062-17.9757479994-1.436564126.0750351524-11.7629367326,25.4800321545-19.4823949184,0,0,15.4847035327,1.0519780051,23.9176145735,1.6252663953" style="fill: #d977af;"/>
      <path d="M276.2638734958,445.2935430252s20.7617066289,8.62384229,13.3589811791,16.8029217511c-3.7822174353,4.1861196322-22.2490370759,25.4653960018-32.6236993711,36.3333589796-12.2054704861,13.2770124206-9.2211516023-7.3058980944.3481829185-32.0722041931,0,0,10.3699571207-11.5477369006,16.016909532-17.8380601836" style="fill: #d977af;"/>
    </g>
    <g>
      <path d="M110.8814447477,277.3089008532c3.0737172008,73.445795832,5.0011052908,145.8856748427-3.8936557805,209.370120568,7.3230113431,1.731504287,18.9937991928,1.4051137478,26.1087660713,1.7532966751,14.8970779833-51.6635610517,15.7774680037-106.8651658319,25.5282961133-167.0728288446,9.4438082302,25.4292404488,9.9298994776,66.1423741453,27.458160611,88.9547945425,0,0,48.9477127242,38.4011594367,73.7360289556,53.0686747996l18.0312498829-17.2865641814s-52.9718762707-53.0808091975-70.9694166576-59.7240205825c0,0,4.56822923-69.7552053872-5.2091235351-106.7418407268" style="fill: #2b3073;"/>
      <g>
        <path d="M188.9540826837,289.9036543754c2.0506582768,5.9700410567,1.1282839531,12.5587582425,1.1307814287,18.7455424111.0029040353,7.1939200658.1727997638,14.387104468.3879603118,21.5774154682.2228277412,7.4465359654.2879003655,14.9128498307.7149844526,22.3502452618.4133496528,7.1982190661,1.3053119124,14.3779015547,1.621932331,21.5788856794.259399833,5.8996008138-.6341728693,12.0997945529,1.278224575,17.8089385025,1.6684291791,4.980817341,6.3065664785,7.9872293738,10.5295945416,10.6795415214,11.673233012,7.442050247,22.5565871609,16.1427992013,33.6544167099,24.4029392213,2.9777476182,2.2163443908,5.8413122044,4.4814640313,9.0285289579,6.4009603846,3.2327800127,1.9469367555,6.5635512673,3.7430472141,9.6381505498,5.9409398329,2.3229283056,1.6605568751,4.5574872695,3.3550564463,6.9574728497,4.914218955,2.3763741724,1.5438232408,5.1264124053,3.2203890683,6.4922947639,5.8010924031.3500993819.6614791067,1.353879257.0747340348,1.0037846715-.5867360096-2.2815131692-4.3106996783-7.5633554341-6.2992034762-11.2648189975-9.1246503761-2.3938872926-1.8273316254-4.7933515357-3.5400500014-7.384238061-5.0869493908-2.8377995866-1.6943198419-5.7436781474-3.2854821556-8.4638500519-5.1687435207-2.8665949611-1.9846346956-5.5918612402-4.2176752052-8.3863709046-6.3065804776-2.9446323483-2.2011224781-5.8842267701-4.4089782649-8.8300531161-6.6085042733-5.7122586774-4.2651059673-11.4554890503-8.4891473571-17.2788885614-12.601476047-4.3288829533-3.0569411442-9.5554509135-5.3963646089-12.8504227255-9.692254213-3.703262566-4.8282073614-2.9170176958-11.9878207799-2.9101945358-17.7012551571.0082653301-6.9210484194-.9426872299-13.8559953344-1.4240203965-20.7560638889-.5081443368-7.2844154588-.5935924534-14.5777137069-.827943471-21.8734830894-.2624352677-8.1700826841-.4893401536-16.3424697863-.5205855048-24.5171915256-.0256937949-6.722267994,1.0518134637-14.0007636253-1.1757654409-20.4858702216-.2416182879-.7034185632-1.3649457039-.4012303716-1.1209743765.3090385492h0Z" style="fill: #4b538f;"/>
        <path d="M173.2177501408,289.1344821335c2.5576206117,7.2091922441,7.4649030816,15.7042067887,16.2968197312,15.0142581184.7409735904-.0578848016.7472191086-1.2208727011,0-1.1625-8.2727167599.6462640166-12.7873724269-7.4283827877-15.1758453547-14.1607966676-.2484045589-.700180555-1.3720133717-.3985677191-1.1209743765.3090385492h0Z" style="fill: #4b538f;"/>
        <path d="M151.7210728948,317.9227220316c.9106877682,4.7828060777.1133310146,9.7483601817-.8889904992,14.4506931757-1.0170436359,4.7714009725-2.3925408301,9.457753998-3.4176398727,14.2270542766-1.1187741801,5.2051263216-1.7173696479,10.5421065746-2.381258887,15.8206574407-.7252674778,5.766566239-1.3564450696,11.5445629185-1.9570556363,17.3252930493-1.2103593199,11.6494130748-2.1359375385,23.3558230756-3.7060393687,34.9632424893-1.6094918464,11.8986211876-3.9554013289,23.6798048055-5.9391891978,35.5180031407-2.0618434176,12.3039926276-2.6795381023,24.9598108171-5.8912316989,37.0442163965-.1923551078.7237605545.9286902933,1.0325318644,1.1209743765.3090385492,2.8617839084-10.7678258805,3.4722272487-21.9602592406,5.2178679553-32.9279291446,1.904545896-11.9660538538,4.3012750394-23.8496619059,6.074163986-35.8372635813,1.7172656859-11.611498314,2.6796421699-23.3353338797,3.8687057334-35.0098160796,1.1772562525-11.5585554777,2.1891097969-23.2469443581,4.2722687436-34.68575627.9842487692-5.4045979369,2.6073635251-10.6702769508,3.7727461783-16.0354501236,1.0957010746-5.0443740475,1.9532072084-10.337040215.9756525642-15.4710218682-.1397751256-.7340796082-1.2604069704-.4232421301-1.1209743765.3090385492h0Z" style="fill: #4b538f;"/>
        <path d="M131.3568415302,288.2110382577c-.2929020989,4.2583070302-1.5065393227,8.7490776761-5.3273989329,11.1567804061-3.6491037725,2.2994713262-8.3371380041,2.4604724518-12.5168146996,2.4673872737-.747957909.0012374153-.7493036973,1.1637396417,0,1.1625,3.7043497124-.006128445,7.6082802497-.1781689097,11.0798186587-1.6008214415,2.9727738815-1.2182565166,5.2389794878-3.4239824566,6.4895656774-6.390108899.9073644593-2.1520769524,1.2779023781-4.4779363771,1.4373292963-6.7957373393.051360603-.7466973347-1.1113586615-.7435095962-1.1625,0h0Z" style="fill: #4b538f;"/>
      </g>
      <g>
        <path d="M105.9669369356,487.8292135517c9.5685660701,3.0939687711,19.7593628643,4.3846058239,29.5555838468,1.5331440276,1.8638596312-.5425280362,1.0709013533-3.460129942-.8035002279-2.9145333789-9.3002542762,2.7070969317-18.8742811132,1.4010059444-27.948583391-1.5331440276-1.8550963914-.5998401704-2.6496417597,2.317588737-.8035002279,2.9145333789h0Z" style="fill: #4b538f;"/>
        <path d="M258.2358965445,464.5524191636c4.963120672-2.2102921782,9.9926175875-4.841982897,13.7388646464-8.8709908931,3.1247179715-3.3605668539,5.0009178499-7.500880182,6.4187236769-11.8169433685.6084552613-1.8522503603-2.3092533369-2.6460846333-2.9145333789-.8035002279-1.2746365499,3.880229425-2.946775066,7.6406196075-5.7880021858,10.6393666588-3.5584757989,3.7557605778-8.3125454227,6.1633561644-12.9805663837,8.2422276848-.7514116196.3346360758-.913868045,1.4145149887-.5421632604,2.0676768855.4397868443.772796104,1.3264673856.8722558913,2.0676768855.5421632604h0Z" style="fill: #4b538f;"/>
      </g>
    </g>
    <g>
      <path d="M108.7267224335,282.7042503815c0-40.1326637238-11.4244115068-186.6446220822,61.5449216339-168.4029074381,52.9042399896,14.5947089754,37.4435316204,133.7406283969,37.4435316204,173.8757685284" style="fill: #ebb1c2;"/>
      <path d="M261.4997786044,125.5999532259c-4.1378295768,16.6189246565-8.0604593271,57.0227550271-10.9600850686,61.8544741553-6.1838375943,9.7823058276-38.3070549752-78.4008400653-77.216096944-73.5086965884l16.9237704485,74.9695295102c17.4678086476,22.9114767065,52.904211851,57.6901469112,76.6187869863,33.9755711768,9.4098538668-9.4073776968,24.1546327784-57.1604432971,28.0505173258-89.5570569032-12.6626153421-2.8027982724-22.5367654337-.679526282-33.416892748-7.7338213507Z" style="fill: #ebb1c2;"/>
      <path d="M152.1775509582,112.7946964785c-63.2355923275,3.4558269916-78.8726209228,111.6971326009-126.4686810705,153.1526933357,3.5479492697,15.9661435781,21.5913031985,21.591303744,21.5913031985,21.591303744,18.4254636324-18.4232353309,78.362206125-95.5618503746,95.0779579017-122.3501433874" style="fill: #ecb2c3;"/>
    </g>
    <g>
      <g>
        <path d="M125.6769900166,32.9451578893c-4.2032067393,34.517161548-12.7398792615,74.6404149224,29.9949926288,74.6233277091,36.5416521351-.0118867571,40.016766831-46.6815239742,35.818541077-77.9100160526" style="fill: #eec3a3;"/>
        <path d="M156.9809624231,74.4660957883v45.6055248141c0,5.9841062049,9.3,5.9940178685,9.3,0v-45.6055248141c0-5.9841062049-9.3-5.9940178685-9.3,0h0Z" style="fill: #eec3a3;"/>
      </g>
      <path d="M172.6079147569,44.6766442437c-17.030255981,19.3709565704-65.7362432771,11.6081612492-65.7362432771-24.3747860361,16.2466941315,3.4823245544,61.0929787774-24.3747860361,64.5752756681,0C234.1359691256-.1649087848,205.8846151378,94.5869086203,205.8846151378,108.5167021194c-8.1258364896,2.3216322498-20.5440303946,3.4823245544-29.8283303925,2.3216322498-13.9297931472-1.1609399453-15.4436211562,1.5259624452-10.8535995388-10.444992537,6.5394497358-17.0567535438,7.4052295504-39.4652718397,7.4052295504-55.7166975886" style="fill: #242058;"/>
      <g>
        <path d="M157.3816945011,78.6135834598c-.282805756,6.3383655931-1.109925918,11.8813090222-8.4326634,12.3166615017-9.0423549685.3578409174-11.3300603746-4.367640319-10.9675142916-12.4352814321" style="fill: #fff;"/>
        <path d="M164.158136451,85.4344784359c1.9467198318,0,1.9499442451-3.02543,0-3.02543-1.9467198318,0-1.9499442451,3.02543,0,3.02543h0Z" style="fill: #d977af;"/>
        <path d="M131.6260641637,84.5325707395c1.9467198318,0,1.9499442451-3.02543,0-3.02543-1.9467198318,0-1.9499442451,3.02543,0,3.02543h0Z" style="fill: #d977af;"/>
        <path d="M152.2837616704,69.150695236c1.4974743189,0,1.4999546327-2.32725,0-2.32725-1.4974743189,0-1.4999546327,2.32725,0,2.32725h0Z" style="fill: #1d254f;"/>
        <path d="M139.2125390626,69.3225579327c1.4974743189,0,1.4999546327-2.32725,0-2.32725-1.4974743189,0-1.4999546327,2.32725,0,2.32725h0Z" style="fill: #1d254f;"/>
      </g>
      <path d="M178.3878504061,70.5724399094c4.6043569429.3821097132,11.1291958735.3821097132,10.360023651,6.5248390954-.7639436849,6.1424817414-8.0579829194,6.1424817414-12.664844109,5.3735571402" style="fill: #eec3a3;"/>
    </g>
    <g>
      <path d="M146.0332344704,118.5528397396c.068412309,5.4674982669,4.7912154277,8.7627517441,9.6790300821,9.9210468468,5.171806125,1.225594285,11.3990383034.7594671971,15.9103639987-2.252733769,2.3741522443-1.585215559,4.1578602593-3.9236686396,4.6187961118-6.7837573714.2358967913-1.4637302588-2.004133642-2.0937104553-2.241948753-.6180770984-.7381662645,4.5802924725-5.1158181558,6.8184759001-9.2927856263,7.6039340457-4.3726863975.8222621252-9.6660576191.3322017859-13.3575495916-2.3480236168-1.8223796119-1.3231474335-2.9624838345-3.2508774437-2.9909062217-5.5223890369-.0187060766-1.4949859566-2.3437572941-1.4990792524-2.325,0h0Z" style="fill: #d977af;"/>
      <path d="M261.7619551442,128.4803596776c9.2288132418,6.553442495,21.4094370419,9.9230215724,32.5618470837,7.0263672806,1.4470607115-.3758501171.8335707735-2.6189903093-.6180770984-2.241948753-10.5787661674,2.747659771-22.0413535684-.5935056114-30.7702979661-6.7919878705-1.2222422292-.8679224462-2.3847930152,1.1474021381-1.1734720193,2.007569343h0Z" style="fill: #d977af;"/>
      <path d="M106.1128912653,283.825224758c12.6556003085,2.6660265576,25.6979430041,3.5276392876,38.5956232747,4.0174458459,14.1475231494.5372710036,28.3178928989.445695545,42.4674499539.0331985975,6.8494037602-.1996782043,13.6963215777-.4821466414,20.539211194-.8410504068,1.4885509064-.0780732344,1.4977773576-2.403557154,0-2.325-12.787669772.6707024501-25.591330388,1.0850013117-38.3967371098,1.1613470367-14.0900526356.0840047729-28.2159064957-.1888024439-42.2572158876-1.4341289074-6.8174963667-.60464508-13.6286865287-1.4420098132-20.3302543268-2.8537609188-1.4596910759-.3074982679-2.0836693218,1.9332073504-.6180770984,2.241948753h0Z" style="fill: #d977af;"/>
      <path d="M24.7050852163,266.5341258238c3.0475303468,4.5452468574,6.5689212061,8.7818198114,10.4378591418,12.6503668434,3.5029247059,3.5025707829,7.3238865346,6.7855571195,11.5704927186,9.3579855624,1.2830927517.7772475587,2.4529638281-1.232503095,1.1734720193-2.007569343-4.0838711445-2.4738499014-7.7314570305-5.6262942353-11.0999414716-8.9944394857-3.731295675-3.730919951-7.1349523378-7.795898592-10.0743130651-12.1798155964-.8290792831-1.2365323975-2.8439620891-.0739680612-2.007569343,1.1734720193h0Z" style="fill: #d977af;"/>
    </g>
    <g>
      <path d="M198.8278438396,232.395036719c-.7956697846,8.7303278225-1.7800418336,25.4943699722,5.1655387601,34.8195309323,6.9455805938,9.3276373678,21.8183897819,13.692801279,32.9332503299,2.580416858,8.8900558967-11.6782435881,6.6724623141-29.424181404-2.4764076706-35.0107096093-9.9224702546-5.3589463346-27.6854948351-2.389238181-35.6223814195-2.389238181" style="fill: #994988;"/>
      <path d="M219.6403168257,244.9365560429c4.8124030263,9.4413044827,16.986423135,9.1706331175,26.2392727555,8.0193511623,1.0566831531-8.8075917438-3.5068409024-17.3227197343-8.9529566516-20.6480400384-8.9841593882-4.8510351085-26.3987534095-.8560941534-35.5087143074-.057947941,7.5065155416,2.9142366204,14.1643089536,4.7351392266,18.2223982034,12.686636817Z" style="fill: #c262a6;"/>
      <path d="M123.9436780485,120.574579013c.3806193334,9.6665494838,1.862079743,19.3010460379,3.8842133127,28.7512388887,2.3845418059,11.1438632261,5.6143186001,22.1242675537,9.7262574616,32.7542274863,4.1425525141,10.7091006765,9.1698536153,21.1540278378,15.5852454933,30.6980191852,5.799358621,8.6275366418,12.8053290422,16.663178151,21.4971609825,22.4763965482,8.0984191084,5.416335621,17.6174461707,8.4835052961,27.4015887133,8.1295385798,1.2829437306-.0464138148,2.562088448-.1520033811,3.836813136-.3029417627,1.4678145241-.1738018812,1.4853394471-2.500876983,0-2.325-9.5929737493,1.1358907114-19.0599706061-.9436346513-27.3806246291-5.8248378803-8.666346864-5.0839994282-15.7358385549-12.5930985893-21.5368706357-20.7137213225-6.5257353837-9.1351046452-11.6882402722-19.2319031582-15.9146381122-29.6140602148-4.2405961543-10.4170352517-7.5923246055-21.2016306984-10.1379137545-32.1545183242-2.202112255-9.4750121314-3.8539637541-19.1253228222-4.4793140097-28.8408036562-.0650425821-1.0105056397-.1170781017-2.0217288531-.1569179581-3.0335375274-.0587149174-1.4911766293-2.3840122591-1.4987281859-2.325,0h0Z" style="fill: #30498a;"/>
    </g>
  </g>
</svg>