<?xml version="1.0" encoding="UTF-8"?>
<svg id="Layer_1" data-name="Layer 1" xmlns="http://www.w3.org/2000/svg" viewBox="0 0 342.458431818 556.9335498818">
  <path d="M126.5976263779,512.9620193424c-18.8093588641,0-48.5910909247,3.0943986239-67.4004497889,6.1901455697-28.2133641353,6.1898759054-32.9152319387,23.2124391416-1.5667499391,32.4977923284,26.6463445319,7.7372100495,67.3988318027,3.0943986239,95.612195938,4.6428114256,34.483599864,1.5470644798,68.9658514061,0,103.4508217063-1.5484128016,14.1074689464,0,48.9030704764-.3095746946,61.4408452901-6.4994505999,29.7841590398-15.4752290921,1.2561202931-25.9986113928-19.1186638865-29.0927403524-54.8599783316-9.286971173-117.5582906527-7.7385583714-172.4179993199-6.1901455697" style="fill: #dde3f3;"/>
  <g>
    <g>
      <path d="M313.2730501433,268.7855183225c4.4346540771,6.6652941863,19.0186184085,19.0515179419,24.2538823185,24.6173904994,8.8166762923,9.369758134,3.3497706959,12.2732343853-9.0591045531.850521417,1.8857628785,2.1055393861,11.8768274642,13.3424536048,8.5483602528,15.5690722922-3.3287368757,2.2147534552-12.9856873178-8.9919583543-15.316126728-10.3270666407,1.0848597255,2.0685953677,10.2599199539,14.8579673535,8.1557289428,16.7367190061-2.9285549636,2.2516974736-10.6838086372-5.2918935596-15.3476774583-14.0953565206.5714187816,4.0422688778,6.2095612474,20.0101747705-.4187887531,16.8329891855-4.2820003929-2.243877207-6.5889790037-11.2053634876-8.3822470063-14.9040799605-5.0799140137,4.9297343132-10.0201652373,7.4578377642-9.1143857472-1.714256388.8453977726-7.9793686521,2.01738226-14.7314947649,1.6907955453-23.1744164657" style="fill: #eec3a3;"/>
      <path d="M64.5076768558,88.4738992639c-1.926482197-7.7728057461-11.4912074275-24.3541980762-14.5446169904-31.3565727226-5.1522072868-11.7991644262.9756456591-12.6890568409,8.8129181058,2.2543941173-1.0678708977-2.6230253085-6.6903729726-16.5708754197-2.8125993593-17.5467907679,3.8842284165-.9610838079,9.2052455934,12.847349825,10.9472773673,14.8908664065-.3278945516-2.3147989358-4.659800163-17.4491722666-2.0475614953-18.5103015551,3.5156316352-1.1339386679,8.276808241,8.5874618021,9.7081866707,18.447200093.8189706652-3.9988529145.8888312708-20.9345842243,6.0582972073-15.7071404487,3.2720896933,3.5549853647,2.4331638653,12.7694168226,2.8756830822,16.8604949511,6.4414725981-2.9309820169,11.9453222119-3.6458622567,8.0030989143,4.6889240325-3.482715226,7.2275443938-6.8562163857,13.1868572644-9.3883647382,21.24793422" style="fill: #eec3a3;"/>
    </g>
    <g>
      <path d="M143.8636961024,511.1266836531s6.2624154622,25.8643185375-6.7256988349,24.5000864993c-6.6415635541-.6884531318-39.8744601105-3.4800186703-57.507812695-5.8039861946-21.2109896658-2.3938105956.5436610074-13.9152207227,30.8954458727-22.0655565841,0,0,18.2773110793,1.8458525996,28.2330496337,2.851970357" style="fill: #e6925a;"/>
      <path d="M209.0256620282,508.522265186s-9.3592409872,24.9097066745,3.6973680576,25.1373034011c6.6782379073.1251242668,40.001741689,1.3998277348,57.7828703436,1.2391077714,21.3466308395.2068325703,1.1533544732-13.8769283824-27.9749808399-25.6628792546,0,0-18.3708846127-.3910133337-28.3727357728-.6070144926" style="fill: #e6925a;"/>
    </g>
    <g>
      <path d="M139.3948374582,288.0150147473c-13.0830553033,66.4547385526-16.7699064509,146.5628537265-24.0829342646,214.4174200139,9.9452216443,6.4859673815,30.6373770789,6.6110916483,30.6373770789,6.6110916483,4.7191263225-13.8572428835,23.6339239519-73.210909631,19.3387298106-99.4781067345-.759664311-4.6455080692,13.5136703319-55.8580075438,21.1742955074-80.458409188,8.7088105478,31.5973830033,13.7148804373,82.991636262,13.7148804373,82.991636262-5.5774886711,31.6763946632,6.4465755343,65.413294763,9.3540966777,91.7174358849,21.8074872329,4.1531009331,28.7203331345,1.4642775188,28.7203331345,1.4642775188,3.1388931654-20.9278426151,2.7228010559-59.1627443748,1.7274698984-77.35079701-2.6596995954-48.5250243821-.6110594427-89.9042126738-6.4465962209-134.9783421373" style="fill: #2b3073;"/>
      <g>
        <path d="M228.2342691659,304.6258020852c3.4300179514,25.5179081628,3.73798914,51.3334643754,3.7535208993,77.0407602486.0078744813,13.033399303-.0218129811,26.0631655978.1871269124,39.0955044284.2128574519,13.2766911571.5329861844,26.5520146698.6178370102,39.8304947213.0471961611,7.3858242232.2175266742,14.7080685987.7736647835,22.076221459.5424259301,7.1864831809,1.1472398827,14.3828287202.9173233116,21.5962908644-.0238501355.7482803381,1.1386759515.7474618786,1.1625,0,.4169611732-13.0818480106-1.6439753219-26.10872935-1.6716230843-39.1915009499-.0280617414-13.2786642235-.3291848047-26.5544918493-.5617378145-39.8305850291-.4557998434-26.0209110935.1339800014-52.0599534915-.722445272-78.0731215138-.4716391749-14.3256270963-1.4250550726-28.6424750751-3.3351923696-42.8531027782-.0991929004-.7379539576-1.2194612754-.423663051-1.1209743765.3090385492h0Z" style="fill: #4260ac;"/>
        <path d="M180.1674057595,325.6331925055c-2.5256509518,11.3420764656-7.5878455813,21.862328704-12.0678226076,32.5170344316-4.5588599142,10.8423124836-8.2316388408,22.1899204893-10.605386883,33.7195347439-1.1976285572,5.8170433588-1.9979296379,11.7199406136-2.3216231877,17.6512945259-.3374068232,6.1826356495-.5258541456,12.3346733031-1.2353070794,18.4937623404-1.4355168619,12.4623857989-4.291281347,24.5992737554-7.5701391055,36.686615592-3.6926150767,13.6126370798-6.1243743668,27.5389712679-10.0873262719,41.0815788039-.2105286921.7194403367.9109651549,1.0267036977,1.1209743765.3090385492,3.5085074365-11.9896330785,5.815059921-24.280779606,8.8623718211-36.3874912947,1.5334077513-6.0920989233,3.3138957812-12.1138411336,4.7303549694-18.2365581507,1.388061553-5.9999667917,2.5497825212-12.0535784828,3.4208543427-18.1506665137.856173875-5.9928094989,1.4390848538-12.024099213,1.7026306512-18.072498307.2714060453-6.2287924719.6126820518-12.3750985792,1.6497905694-18.5356379276.9961475357-5.9172265836,2.4284712574-11.7545594914,4.1611609457-17.497612563,1.6913309191-5.6059681637,3.4074744741-11.1593734083,5.5853804551-16.6013470817,4.8484728133-12.1149680639,10.9213586939-23.8527325774,13.7750613805-36.6680085993.1623005848-.7288519586-.9581758466-1.0401266568-1.1209743765-.3090385492h0Z" style="fill: #4260ac;"/>
        <path d="M211.4937766256,304.4712828106c.951339509,8.6352205565,10.126989511,15.5577913394,18.5570763234,15.6274430825.7482284828.0061820737.7489338473-1.1563120984,0-1.1625-7.7385945039-.0639384396-16.5141235154-6.4731545415-17.3945763234-14.4649430825-.0810336752-.7355351602-1.2444429175-.7437882683-1.1625,0h0Z" style="fill: #4260ac;"/>
        <path d="M155.9046258611,304.0538423687c.3591667412,4.0633993896-.1396426637,8.3507913222-2.7017725219,11.6720692461-2.2541148861,2.9219994393-5.6978282803,4.5682746069-9.223604646,5.3889042291-2.3401832301.5446810804-4.740465121.739686005-7.1389608806.747268443-.7479039145.0023643715-.7493470042,1.1648689336,0,1.1625,7.9690259584-.0251927252,16.9413575688-2.6010264664,19.5619623991-11.0420388755.7938821667-2.5571078642.8991934179-5.2777708478.6648756494-7.9287030426-.0653550057-.7393877545-1.228464285-.746280779-1.1625,0h0Z" style="fill: #4260ac;"/>
      </g>
      <g>
        <path d="M113.2944166191,505.5726905234c10.0132396906,6.6037332259,21.9932966916,7.904642645,33.679318562,6.4765658141,1.9061286824-.2329362582,1.9295184192-3.258294574,0-3.0225-11.1984698928,1.3684961035-22.5464010281.272178501-32.153804937-6.06390596-1.6284737587-1.0739787122-3.144159519,1.5423429121-1.5255136251,2.6098401459h0Z" style="fill: #4260ac;"/>
        <path d="M209.3573491926,508.914138394c5.410398405.67124962,10.8447003328,1.1762759736,16.3010758076,1.1762759736,5.4563803498,0,10.8906738512-.5050259131,16.3010758076-1.1762759736,1.9051138062-.2363609521,1.9288009832-3.2617997391,0-3.0225-5.410398405.67124962-10.8447003328,1.1762759736-16.3010758076,1.1762759736-5.4563803498,0-10.8906738512-.5050259131-16.3010758076-1.1762759736-1.9255910414-.2389014926-1.9082487815,2.7857501022,0,3.0225h0Z" style="fill: #4260ac;"/>
      </g>
    </g>
    <g>
      <path d="M197.5778705628,108.0507233949c-46.3496407537-6.1424149766-64.7113567781,22.5436715088-66.2875449698,66.098242258-2.9770945486,49.2374776426-1.774930826,101.3846338169-1.774930826,128.4524644293l55.6209711591,4.0239317008,55.6220498166-6.0094704431c0-22.8451562723,2.0224827097-78.3593417467-1.1058935456-116.6390077916-3.1337695425-38.2796660448-11.4186677143-71.8639361123-42.0746516342-75.9261601534Z" style="fill: #d977af;"/>
      <path d="M169.408192054,109.6862377874c-34.3468609911-1.8908865491-74.4737459854,39.0908164641-75.8484948993,32.8297491655-4.2674385174-20.2668952489-3.6749859156-38.7116683625-5.6618729296-61.5568246348-10.2046387598-2.1578542735-17.3070587074-2.4016308623-23.515271633-1.0794664655-6.2071342681,1.3232430543-8.6904733712,3.3891417783-8.6904733712,3.3891417783-1.986887014,7.9464695992-2.4280409337,11.4515670557-2.1513822743,25.1321797781.2750576485,13.6808823868,1.2679618268,27.5049565531,2.1513822743,36.0268899137,1.9858083565,29.7973733463,7.8952331698,39.1841203354,24.5332545968,46.1366070738,16.6366731053,6.9535653958,40.5812504014-2.9153414835,62.3598835477-17.9628828879" style="fill: #d977af;"/>
      <path d="M204.8437071133,109.6862377874c27.7117884233,0,47.4598489291,30.1029030753,60.7324814661,59.362835336,12.4509205506,27.4485967001,38.6113299035,67.8165436115,54.3384251181,101.1505651454-15.2581488904,11.476645842-29.3656399511,15.256800954-29.3656399511,15.256800954-17.4017108982-22.656660879-60.0820286879-100.5249438114-75.1293000477-112.2278380582" style="fill: #d977af;"/>
    </g>
    <g>
      <g>
        <path d="M147.6309072295,18.7101092504c4.9494196871,33.4222017823-8.2519991198,81.3561218694,36.3097871951,81.3561218694,49.5073901479,0,39.6056057428-49.3361748013,34.6548164569-82.7597249054" style="fill: #eec3a3;"/>
        <path d="M181.6345967765,69.2654366598v45.6889642227c0,5.9841062049,9.3,5.9940178685,9.3,0v-45.6889642227c0-5.9841062049-9.3-5.9940178685-9.3,0h0Z" style="fill: #eec3a3;"/>
      </g>
      <path d="M164.3978282213,34.7923528351c18.6000993198,3.7763798109,44.0958069188,14.2113121988,60.3967269975,4.1806066986C246.1123319717,26.4324877596,234.2012571336,1.7716812969,208.4936351401.1008408722c-11.3315870224-.7375320468-24.7886476437,2.4423501819-41.6610074007,13.7925234352,0,0-3.4813669042-7.52363587-14.7657417666-5.0152179179-23.8248463197,5.0152179179-5.0141391338,50.156493809-.144809762,65.7069592599,2.5084178887,0,2.8241948558-1.0627472747,5.1602972176-10.5338992111,2.2500794306-12.8050125192,3.553636953-22.9886177161,7.315454793-29.2588536032" style="fill: #242058;"/>
      <g>
        <path d="M183.7049874964,72.0885529295c.9454432507,6.8443513267,2.4005521442,12.7707651445,10.3836958957,12.508921043,9.8411312008-.5255758534,11.8452767339-5.8792225533,10.6390680459-14.5893816429" style="fill: #fff;"/>
        <path d="M171.6450579309,75.0350733747c1.9467198318,0,1.9499442451-3.02543,0-3.02543-1.9467198318,0-1.9499442451,3.02543,0,3.02543h0Z" style="fill: #d977af;"/>
        <path d="M217.091862403,70.7689830713c1.9467198318,0,1.9499442451-3.02543,0-3.02543-1.9467198318,0-1.9499442451,3.02543,0,3.02543h0Z" style="fill: #d977af;"/>
        <path d="M185.6552001572,58.7102572153c1.4974743189,0,1.4999546327-2.32725,0-2.32725-1.4974743189,0-1.4999546327,2.32725,0,2.32725h0Z" style="fill: #1d254f;"/>
        <path d="M202.3525477438,57.5792848555c1.4974743189,0,1.4999546327-2.32725,0-2.32725-1.4974743189,0-1.4999546327,2.32725,0,2.32725h0Z" style="fill: #1d254f;"/>
      </g>
      <g>
        <path d="M157.0823734283,64.0512064383c2.1171349005,33.9413056909,62.305702183,38.0164736216,65.4421471972-1.1692647001,11.2843748624,56.1133797004-70.4525110299,61.2343060506-72.019260969,6.3743263331" style="fill: #242058;"/>
        <path d="M191.8027386015,67.3161793205c-4.0127439558-.4214522027-8.6268809894-.0172765777-11.318346585,3.3775161817-2.4093932219,3.0390099274-2.6055122658,7.277424318-2.3022063585,10.9818457474.2301196044,2.8105617901.7821731137,5.5871696482,1.4599139257,8.3208846283.1799271047.7257485643,1.301301667.4183241926,1.1209743765-.3090385492-1.2188540812-4.9163332076-2.46035272-10.707782027-.7678162086-15.6655557854,1.7538816427-5.1374657651,6.9804996887-6.050122482,11.8074808498-5.5431522229.7432000211.0780571323.737717141-1.085018726,0-1.1625h0Z" style="fill: #242058;"/>
        <path d="M198.5411338983,67.5178665215c3.6915599569-.7988912758,8.1769815984-1.0098892345,10.9913843201,1.978214254,2.4702048643,2.6226622494,2.8165138986,6.6430530436,2.6567618284,10.0636065841-.1202846358,2.575491113-.5806621478,5.1200677584-1.1986984634,7.619282017-.179591139.7262303589.9411867655,1.0360634012,1.1209743765.3090385492,1.703315719-6.8878653631,3.104643123-18.8333639218-5.9367634202-21.2492573291-2.5962689665-.6937315616-5.3520864794-.402493067-7.9426971906.1581415483-.7308348754.1581601309-.4215606789,1.2790835109.3090385492,1.1209743765h0Z" style="fill: #242058;"/>
      </g>
      <path d="M152.3066175899,59.9563530087c-5.8527952974-.8362292055-16.3012106398,3.3443774932-12.1219523686,10.8680133631,2.92585832,5.0154875823,10.868282753,5.4329280241,15.0475605754,3.3432988357" style="fill: #eec3a3;"/>
    </g>
    <g>
      <path d="M170.8894814521,115.5468534993c.7119938435,12.6510942575,19.2213173351,12.5915234422,26.7620517097,6.4797336445,2.2773040588-1.845762365,3.741681702-4.4563014418,3.7776607474-7.4197836317.0181697824-1.4965885278-2.3068191722-1.4974983001-2.325,0-.0564647125,4.6508229351-4.6025509972,7.3056170687-8.5972730202,8.3853387939-4.4502386912,1.2028419924-9.903653068,1.1525497017-13.8660075027-1.4686333495-2.0614615682-1.363701358-3.2877313294-3.5121475943-3.4264319342-5.9766554572-.0837258718-1.4876868745-2.4092726651-1.4974025962-2.325,0h0Z" style="fill: #a35988;"/>
      <path d="M129.1090073834,303.1919746466c14.1616294502,2.5824468115,28.691776904,3.1996704038,43.0590146117,3.3201643596,15.6827455503.1315267477,31.3900511379-.5009559055,47.0113728083-1.8949126848,7.4070581947-.6609632144,14.8053971752-1.4978442515,22.1488249259-2.6789213221,1.4733389508-.2369638418.8480409346-2.4777512216-.6180770984-2.241948753-13.7947904919,2.2186792458-27.7888159554,3.304237938-41.7369306009,3.9563579631-15.5521467273.7271137765-31.1729830698.8394450328-46.7167476626-.1412724354-7.5431470189-.4759269225-15.0892784597-1.2046746754-22.5293798856-2.5614158804-1.4628319844-.2667550233-2.0902215601,1.973495551-.6180770984,2.241948753h0Z" style="fill: #a35988;"/>
      <path d="M55.435358749,84.1074707248c10.3585808523-1.258558512,20.9652291858-2.8181374072,31.3527934383-.9818452751,1.4631907089.2586598284,2.0912593185-1.981522646.6180770984-2.241948753-10.6281174501-1.8788166291-21.3682233584-.3894183291-31.9708705367.8987940281-1.466545752.178184026-1.48445121,2.5053595234,0,2.325h0Z" style="fill: #a35988;"/>
      <path d="M291.1783703656,287.2459088786c4.5264049016.1371183917,9.180440693-1.6943091002,13.2167993928-3.5545554679,4.7391177506-2.1841286261,9.5004888015-5.0854856145,12.9743044702-9.0403651032,1.6174133898-1.8413973712,3.0112776035-3.9942453583,3.4552363149-6.4412002276.2654180494-1.4628972736-1.9748207695-2.0903989678-2.241948753-.6180770984-1.0127295202,5.5818331013-6.9633048474,9.5327469499-11.5178784148,12.1205527221-2.7498686312,1.562413212-5.6454852909,2.8802621762-8.6528244853,3.8639526872-2.3176100883.7580824459-4.775447503,1.4191599874-7.2336885248,1.3446924877-1.4966057947-.045336682-1.495172622,2.2797067331,0,2.325h0Z" style="fill: #a35988;"/>
    </g>
  </g>
</svg>