<?xml version="1.0" encoding="UTF-8"?>
<svg id="Layer_1" data-name="Layer 1" xmlns="http://www.w3.org/2000/svg" viewBox="0 0 307.0452846745 525.2831910871">
  <path d="M128.5665604752,484.7029379534c-11.6741456402,0-116.4348885046-10.1052101066-105.070318787,24.3081025888,7.3009783972,22.1122441676,69.9949907573,15.0205740085,173.6578044389,15.7304679638,53.8887707148.3669790786,127.8410692369,4.4746882051,105.9466567832-25.4536588656-14.4575715869-19.7574617465-143.8883821201-14.584911687-174.5341424351-14.584911687" style="fill: #dde3f3;"/>
  <g>
    <g>
      <path d="M276.6140387145,101.0892291282c1.7283611223-7.2385620581,10.4919917529-22.7266333218,13.2726603432-29.2603147999,4.7000393102-11.0058629955-1.0036777279-11.7866962126-8.1735343937,2.1640234875.9718208267-2.443017828,6.0929836591-15.4514736233,2.4798441062-16.3278116417-3.6181529282-.8665619363-8.4553080518,12.0120474365-10.0610921489,13.9238981418.2862637276-2.1542474054,4.1956937586-16.2566217111,1.7576893676-17.223701824-3.2754887289-1.0232299173-7.6278504645,8.04897419-8.8786875929,17.223701824-.7931159668-3.7111511331-.986632252-19.4513951789-5.7551041345-14.5530767533-3.0110331837,3.331638616-2.1592607263,11.8897210769-2.5410292527,15.6938703235-6.0072769103-2.6756384461-11.1332024492-3.2950409756-7.4024992463,4.4210450884,3.2900275171,6.692605478,6.4770515365,12.2053130578,8.8907196935,19.6787517529" style="fill: #eec3a3;"/>
      <path d="M35.5754680498,248.7241103128c-6.1015283653,4.2618704198-22.9261650832,10.0292574694-29.3495521404,13.0648562685-10.8125971011,5.111136211-7.0645977535,9.4833008893,7.5493911416,3.8114186409-2.3450062798,1.1824045859-14.8062518365,7.5125430232-12.6850927622,10.5676939864,2.1296818122,3.0476309001,14.2911275281-3.3684869251,16.7622201958-3.7307032971-1.6426171442,1.4197879107-13.9264044776,9.3707506118-12.7439999216,11.7109942442,1.769972137,2.9423500169,11.0427110257-.9497839678,18.069457796-6.9838825882-1.8689862985,3.3020597012-12.1712217976,15.2040635478-5.3560394635,14.7094940655,4.4674186979-.4895561069,9.5078661885-7.4611559254,12.3156070053-10.0510656523,2.7195054121,5.989980917,6.1393793485,9.8552933433,8.4711001839,1.6105468443,1.9777765417-7.1871749603,3.2569392404-13.4293286595,6.4048375688-20.6262797018" style="fill: #eec3a3;"/>
    </g>
    <g>
      <path d="M202.2897477477,484.286827796s-3.6938548947,24.4597571944,8.2251941272,22.139065726c6.0927549586-1.1773912105,36.6382477683-6.467504923,52.7775560875-10.0513163211,19.4463813123-3.9435210824-1.6378482373-12.8417610636-30.4033636209-17.9188063219,0,0-16.7782629967,3.194522799-25.911630053,4.9351667347" style="fill: #2b3073;"/>
      <path d="M79.0790319048,471.6285562717s-13.4416110896,20.7659022064-1.6278429483,23.5613603243c6.0391118432,1.436833387,36.0506979062,9.2043065488,52.2315995212,12.5823188872,19.346113807,4.416031713,3.800389119-12.3742638084-20.317956602-28.851223368,0,0-16.6068055626-3.9999215556-25.646923839-6.1787345004" style="fill: #2b3073;"/>
    </g>
    <g>
      <path d="M112.2841202921,476.5464268613c-14.9716932202-4.0122043253-15.2163459331-5.0820586337-30.3299176733-8.4991753001,10.3877135474-56.6992703203,28.5060517522-70.449204336,30.6555363967-83.6852673741,0,0-9.2165890857-74.0793894565-3.5446893737-103.2050951271l94.1892715068-.1418785236c1.1382868537,54.4126698045,12.8761023598,144.7391555589,28.2295641064,196.0061829744-13.4781883701,1.767465494-14.2347270564,1.4834577782-27.5442357078,4.1468134545-5.7721496104-7.1037022601-26.320220137-52.914422569-25.2822007886-93.3079400993,0,0-8.6731392071-34.8783032629-21.8625587083-64.9560489202-5.8824626788,33.3163861598-7.0182428449,67.4456911393-7.0182428449,67.4456911393-1.2373010152,4.063591423-34.5955480169,81.2813538742-37.4925269133,86.1967177761Z" style="fill: #c262a6;"/>
      <g>
        <path d="M115.5130354929,289.8300284861c-.004090045,13.6958576862-.3506597128,27.4021414163.267998931,41.0902995589.6078719133,13.4494958783,2.4040124023,26.761676799,3.8811653775,40.1320503632.3725912645,3.3724905116.7165201271,6.7484284261.9989446905,10.1297581456.2449481278,2.9326428779.475149664,5.8227611308.0640433899,8.7517504232-.7396658496,5.2698620516-2.8921632368,10.2319285464-5.3748671248,14.895152427-2.5136025262,4.7212603095-5.4205132928,9.2163988774-8.1434757091,13.8163662991-2.6686098988,4.5081483765-4.8949016557,9.1035951506-6.8108097772,13.9750786991-4.9494185204,12.5846383894-8.851698419,25.6654656845-11.6707598538,38.8901502351-.155537916.72965415.9648393692,1.0414937533,1.1209743765.3090385492,2.5289257945-11.8636101619,5.9627413681-23.5749801109,10.1691053588-34.9512525063,1.9055093206-5.1535228837,3.9473507882-10.1850272369,6.6534170163-14.9761144661,2.6872311762-4.7577397908,5.6833077859-9.3330619678,8.3729068553-14.0895012417,2.5607752853-4.5286200005,4.9167458978-9.2785566968,6.175065064-14.3523485457,1.409722784-5.6842811927.7347981461-11.3281173638.1660961796-17.0846849139-1.3381691478-13.5453392936-3.4135244385-27.0220873499-4.195476272-40.6197180347-.8795827531-15.2953684878-.5164006568-30.6057839761-.5118285025-45.9160249919.0002233848-.7480228336-1.1622762509-.7492425068-1.1625,0h0Z" style="fill: #994988;"/>
        <path d="M132.6093971501,292.1630027243c-.0120852072,3.7297073272-.4774387696,7.6474626617-2.4156185456,10.9127804016-1.7175428525,2.8936031708-4.5143617522,4.7838644307-7.6989514489,5.7501662852-2.2023843113.6682707184-4.4950318064.9349939255-6.7885769081,1.0172738431-.7458971161.0267587296-.7494481406,1.189386121,0,1.1625,3.9713810068-.1424715396,8.1503085545-.8254807971,11.5010232903-3.1046155773,2.9223475001-1.9877621202,4.7910709738-5.0101043754,5.7041187995-8.3897094162.6453864634-2.3888686701.852510704-4.8812730513.8605048129-7.3483955364.0024240676-.7481098513-1.1600725959-.7491395555-1.1625,0h0Z" style="fill: #994988;"/>
        <path d="M184.2842613483,291.7737141252c.143433677,3.2079526031.913347275,6.4447861362,3.0031136753,8.9624503301,1.8652062786,2.2471234398,4.607973445,3.5295285748,7.4333830711,4.0737421409,1.8717769453.3605305216,3.7829298038.4413058736,5.6842112225.3647597409.7455073402-.0300143384.7493399354-1.1926686397,0-1.1625-3.6208171913.1457751339-7.5391455024-.2481267077-10.5537969759-2.4482312384-3.1151732177-2.273465696-4.2391317363-6.0936830832-4.4044109929-9.7902209735-.0333140689-.7450827191-1.1959981945-.749200762-1.1625,0h0Z" style="fill: #994988;"/>
        <path d="M162.9931042738,323.1485055406c12.1164876893,17.3750330533,19.1477513494,37.4822869682,22.0266757845,58.3889011467.7259871391,5.2720845432,1.2009322948,10.5783293812,1.4825649374,15.8921513246.2889523721,5.4519300087,1.0308285824,10.8025401585,2.3026362717,16.1159037111,1.2826649237,5.3587229527,3.0779483186,10.5493423691,4.642008995,15.8256256136,1.6485742252,5.5613856247,2.0547247834,11.3729109522,3.0447950482,17.0647262752,1.0958307638,6.2998218964,3.5021058677,12.2921506562,5.7796831787,18.2427799211,2.283966625,5.967322634,4.6069877987,11.9175823817,6.5128644108,18.0198535831.2222949729.7117481806,1.3448969707.4079209798,1.1209743765-.3090385492-1.7064445762-5.4637259979-3.7410875545-10.8093610176-5.7948556217-16.1496830122-2.0396217903-5.3035380585-4.3660917913-10.6940632625-5.7037468023-16.2269438766-1.3581142026-5.6175050231-1.6979794885-11.4157370944-2.8726879941-17.0679110122-1.1366212171-5.4689148561-3.2170234258-10.7239636738-4.6850490981-16.1108437094-1.4966853314-5.4920458706-2.6680699174-11.1232444952-3.0536289922-16.8123576886-.3605881708-5.3206552615-.6344214204-10.6237250779-1.2808912691-15.9224408994-1.2384586493-10.1508839936-3.3422922245-20.2060205945-6.6077908628-29.904832327-3.7844672512-11.2401931351-9.1249760008-21.9032409903-15.909767691-31.6326265103-.4249013356-.6093081543-1.4331018329-.0289044351-1.0037846715.5867360096h0Z" style="fill: #994988;"/>
      </g>
      <g>
        <path d="M78.6870141931,470.2187335704c5.1310222382,2.8800833418,10.5581948653,5.1892019398,16.3072687366,6.4994678629,6.144473882,1.4003811611,12.4738728631,1.8265582682,18.751236252,2.1473808722,1.9440392667.099355685,1.9386936289-2.9234175191,0-3.0225-6.0123472076-.3072781943-12.0625248726-.6978138259-17.9477360241-2.0394142511-5.5102348801-1.2561203443-10.6667638333-3.433986468-15.5852553394-6.1947746299-1.6981792339-.9532014277-3.2236725496,1.656650118-1.5255136251,2.6098401459h0Z" style="fill: #994988;"/>
        <path d="M201.8834136826,484.1825175763c5.6309656883.279759397,11.3039234634.4339680438,16.8772163366-.5718996725,5.6866111866-1.0263194018,10.9921578344-3.3977248019,16.019521238-6.18290119,1.7018098656-.9428084414.1790320248-3.554164221-1.525513625-2.6098401459-4.8183246762,2.6693682237-9.8489295988,4.8948487332-15.2975078409,5.878207957-5.2887731199.9545176005-10.7334006557.7292522726-16.0737161087.4639330515-1.9441987404-.0965922894-1.9390910931,2.9261614704,0,3.0225h0Z" style="fill: #994988;"/>
      </g>
    </g>
    <g>
      <path d="M248.8299130003,92.8372132348c1.5177993612,19.3631597721-2.5114503386,61.5973380771-6.9324953153,66.6475617771-7.2997250534,8.3450140068-19.7351517275-61.3699815032-63.9571322579-59.7443945327l19.35563922,78.1918612896c81.9814696765,50.1192151198,81.5947096718-27.5881034383,87.3229703517-82.7743370656-13.4832221043.0561498044-22.2959838124-.9598107186-35.7889819985-2.3206914684Z" style="fill: #7e8cc6;"/>
      <path d="M152.3101563952,99.7451431859c-46.3198274097-1.6987822512-64.9191989711,54.4863664228-84.0068732832,85.9568277637-11.3976579944,18.7903816336-30.4023609459,45.7495571291-42.8365342761,61.2915221783,9.4722712242,14.3964087723,24.769332499,20.3961657713,24.769332499,20.3961657713,21.7572966403-15.5394583615,75.5728720763-103.4447344708,94.2223773903-123.6501413085" style="fill: #7e8cc6;"/>
      <path d="M160.9685250632,293.651223209l48.6603027338-3.7550181677c0-20.3131944086-2.3770918815-77.9815501919-4.4553865973-115.4106588537-2.0757880281-37.4238446176-3.8530295593-70.9289843609-30.6284641703-75.5458017583-41.5475954957-6.4624915476-57.4643099532,25.997108758-63.6831512997,65.3821858284-6.2213480341,39.382319714-2.7478309823,102.0079010838-5.5177208158,123.2438072331l47.4656343263,6.0854857182" style="fill: #909ed0;"/>
    </g>
    <g>
      <g>
        <path d="M137.5222033784,18.6841271601c-3.1762238986,31.0937061803-5.5224835223,79.0341083552,38.1242121966,76.0037736003,37.0593712904-2.5753709383,33.11334362-38.9027903579,28.5967938445-70.818940771" style="fill: #eec3a3;"/>
        <path d="M161.8166747974,57.7385721236v46.1631605989c0,5.9841062049,9.3,5.9940178685,9.3,0v-46.1631605989c0-5.9841062049-9.3-5.9940178685-9.3,0h0Z" style="fill: #eec3a3;"/>
        <path d="M140.1843056437,64.0885133936c-5.4405148367,0-12.4341733303-.3867819114-10.1024524949,7.3829472693,1.9424322461,6.6046207399,9.7134145744,5.8285502294,15.1526760673,4.2741531895" style="fill: #eec3a3;"/>
      </g>
      <path d="M219.6480582625,2.437281531C154.2049615763-2.8821604274,142.1279912336.2757647313,145.2357825599,14.1848734156c0,0-21.932263437-5.8749239518-20.7561256001,17.6252731928,0,14.1001182867,4.3353162597,29.4362842761,18.7976505531,41.51200158,2.3512729989-12.9249830951,7.0513123091-28.5870184849,8.226447471-40.3371170572,24.6715716814,17.6252731928,74.0194982995,5.8751746205,68.1443032786-30.5477496003" style="fill: #533a67;"/>
      <g>
        <path d="M168.1118138904,69.3467921723c.2005350106,6.4183738441.9595600256,12.0413756825,8.3668219784,12.5823188872,9.1456693666.4847934003,11.5249977261-4.2643771074,11.2703182627-12.4306642816" style="fill: #fff;"/>
        <path d="M160.9685250632,75.6182030933c1.9467198318,0,1.9499442451-3.02543,0-3.02543-1.9467198318,0-1.9499442451,3.02543,0,3.02543h0Z" style="fill: #d977af;"/>
        <path d="M196.2188009716,73.9853467285c1.9467198318,0,1.9499442451-3.02543,0-3.02543-1.9467198318,0-1.9499442451,3.02543,0,3.02543h0Z" style="fill: #d977af;"/>
        <path d="M169.3283285274,58.0895289727c1.4974743189,0,1.4999546327-2.32725,0-2.32725-1.4974743189,0-1.4999546327,2.32725,0,2.32725h0Z" style="fill: #1d254f;"/>
        <path d="M189.5116568744,57.8691911243c1.4974743189,0,1.4999546327-2.32725,0-2.32725-1.4974743189,0-1.4999546327,2.32725,0,2.32725h0Z" style="fill: #1d254f;"/>
      </g>
      <g>
        <path d="M166.3345723592,45.9688296582c-4.0568928029-.2155927595-7.3956502778,2.2213423245-8.6663820299,6.0408580675-1.1834751888,3.5572433815-.5240188054,7.8310728268,2.0381874567,10.6364133821,3.0256135849,3.3127217819,8.4730752037,3.8156191702,12.385627186,1.8761699061,3.744623075-1.856207023,5.2473251703-6.1100456365,4.4645875453-10.0644500655-.9790809024-4.946334165-5.1975057453-8.4268746047-10.2220201581-8.4889912902-.6555406605-.0081042683-.6559266056,1.0102909603,0,1.0184,4.0547791456.0501281159,7.560870228,2.5194032506,8.8747422652,6.3787035898,1.1319152084,3.3248296822.5162539756,7.3600712055-2.4338612429,9.5505072001-3.1862452192,2.3657605548-8.4693055894,2.3412900461-11.5423784091-.2168088084-2.6183547463-2.1795807227-3.5680557072-5.8864635809-2.9164077325-9.1562454573.7929738139-3.9789142389,3.8740930481-6.7763683767,8.0179051193-6.5561565243.6549425947.0348051793.6530270495-.9836966173,0-1.0184h0Z" style="fill: #2b3073;"/>
        <path d="M192.4587695234,46.9872296582c3.6251443918-.192586043,6.5913433234,1.9221603431,7.7094468084,5.3619141432,1.0218788201,3.143726499.526461991,6.9395788176-1.6994261877,9.4666902733-2.6943392782,3.0589567438-7.682098961,3.5936066644-11.2502087108,1.8270783934-3.3514968383-1.6592858208-4.7088808323-5.4421128634-3.9808394461-8.990979049.9167896875-4.4689271557,4.6542810086-7.6082233898,9.2210275362-7.6647037609.6548424454-.0080989265.6566272135-1.026521,0-1.0184-4.4975965884.0556251421-8.343230776,2.7980445548-9.8277521959,7.051840237-1.3013707867,3.7289899353-.5095577957,8.2145165185,2.7483084016,10.6791921495,3.5033571781,2.6503970821,9.2139619024,2.6279973907,12.6691861845-.0906575528,3.0436687674-2.3948330023,4.1392338762-6.5568691509,3.4269030155-10.2648307943-.8516683168-4.4332677776-4.4208151434-7.6196978355-9.0166454058-7.3755440394-.6519518823.0346349882-.6560311086,1.0532516974,0,1.0184h0Z" style="fill: #2b3073;"/>
        <path d="M176.6949674098,57.0521917969c1.6882318333-.2731337756,3.4094536981-.1289262476,5.1103796772-.1261960951.655335432.0010518774.6563300073-1.0173465262,0-1.0184-1.7996143026-.0028885568-3.5949261202-.1264069245-5.3811107382.1625743274-.2716893621.0439557766-.4228483255.3818372906-.3556453533.6263764144.0793974645.2889126146.3538870601.3997305582.6263764144.3556453533h0Z" style="fill: #2b3073;"/>
      </g>
    </g>
    <g>
      <path d="M151.6887648637,105.0971360407c2.6252498278,10.2394269536,16.7887214068,11.8106012576,24.7964693746,7.4442202099,2.3818575382-1.2987543633,4.4145849041-3.2469449672,5.5944514192-5.7076305107.6438436491-1.3427762712-1.3602163326-2.5235672833-2.007569343-1.1734720193-3.7224642201,7.7634323674-15.8490743435,8.7324206268-22.3638295836,4.2119819989-1.880654346-1.3049427397-3.2093370148-3.1768497932-3.7775731142-5.3931767772-.3713375117-1.4483510431-2.6143640772-.8344778045-2.241948753.6180770984h0Z" style="fill: #5976ba;"/>
      <path d="M24.6447372027,247.815504761c6.9831642008,8.3019436202,16.5110343199,13.5502330204,24.769332499,20.3961657713,1.1438129448.9481937234,2.7974688176-.6878443411,1.6440232663-1.6440232663-8.2551707174-6.8433401595-17.7910313618-12.1000036104-24.769332499-20.3961657713-.9643362846-1.1464524155-2.6017156288.505469486-1.6440232663,1.6440232663h0Z" style="fill: #5976ba;"/>
      <path d="M250.7044500474,92.7978418771c11.01343199,3.387752975,22.4947078014,3.5223492549,33.9144449514,3.5225628261,1.4960277562.0000279786,1.4985032567-2.3249719751,0-2.325-11.2208971176-.0002098525-22.47373564-.1104489845-33.296367853-3.4395115791-1.4333455578-.440899865-2.0462296888,1.8026462548-.6180770984,2.241948753h0Z" style="fill: #5976ba;"/>
      <path d="M105.2932551908,287.7441972939c5.5511839049,1.7545031929,11.3182421105,2.7909151484,17.0778237926,3.575833899,7.0603299297.96218539,14.172002568,1.5155100245,21.2898082347,1.8147084839,15.2656080454.6416930474,30.6257793926.2251700521,45.8244768777-1.3583359845,7.3530159195-.7660883511,14.7023551953-1.799588061,21.9139011398-3.4471454902,1.4580706411-.3331123639.8409495607-2.5752795298-.6180770984-2.241948753-13.4648369124,3.0761909111-27.3973298165,4.2247692642-41.172098777,4.7493085308-14.7874369758.5631013753-29.702358151.3061357085-44.4050656716-1.4758756377-6.5018376475-.7880418245-13.0360444881-1.8810224779-19.2926913994-3.8584938012-1.4300015093-.4519652487-2.0419708368,1.791913922-.6180770984,2.241948753h0Z" style="fill: #5976ba;"/>
    </g>
  </g>
</svg>