<?xml version="1.0" encoding="UTF-8"?>
<svg id="Layer_1" data-name="Layer 1" xmlns="http://www.w3.org/2000/svg" viewBox="0 0 304.5940003698 510.4382404685">
  <path d="M87.9817985926,470.1176239275c-22.260483916,1.5849409484-48.6656836366.5935171775-66.2448845009,2.0806528339-21.6268542043,1.484659573-33.2577602018,29.30073225-5.1358919422,34.4705466638,27.4884861562,5.0514576299,49.7514461555,3.5655600152,71.380776443,3.5655600152,41.9072143202-1.4858976147,83.8218848428.2961395679,124.3749012638-2.6744176197,12.1677501373,0,74.3550476806,2.6744176197,82.4652108603-9.211525256,21.6318063708-29.7167142518-40.5555204569-28.8255718563-51.3690713632-28.8255718563-51.3737759214-1.484659573-104.0945411479.5947552192-155.4710407609.5947552192" style="fill: #dde3f3;"/>
  <g>
    <g>
      <path d="M278.3502619042,253.9112261132c4.0719189562,6.1201352011,17.458151477,17.4947668663,22.2701406408,22.6051552798,8.0955542884,8.602161145,3.0733145688,11.2681600814-8.3181231787.7787282117,1.7290179587,1.9355543499,10.9029065161,12.253393644,7.8489053969,14.2966576193-3.0562295942,2.034845292-11.9258075163-8.2577379519-14.0631626047-9.4811707321.9961283041,1.8981654914,9.4205064522,13.6414859665,7.4861901928,15.3678112739-2.6887788352,2.0662915505-9.8075182691-4.8600563874-14.0923803875-12.9424876386.5271581306,3.7116489325,5.7017077888,18.3735288451-.3820289872,15.4549694076-3.9318033056-2.0588633005-6.0500925528-10.2876310772-7.6991640182-13.6850650334-4.6619696021,4.528013611-9.2006302568,6.8481037042-8.3711423576-1.5752842234.7784805837-7.3254925729,1.857062461-13.5253576577,1.5572087756-21.2777269991" style="fill: #eec3a3;"/>
      <path d="M34.9007632487,122.5663947027c-1.7795610543-7.1321104638-10.588474936-22.343928487-13.4055148852-28.7673838978-4.7491277336-10.8256839879.8777715232-11.6526958247,8.1005064549,2.0539111338-.9867191876-2.4045245353-6.1708947538-15.2021612982-2.6140011201-16.1051888937,3.5665503585-.8886663121,8.4751378554,11.7829378086,10.0759502454,13.6546092083-.3045582513-2.1254699424-4.3064285915-16.01357381-1.9103228002-16.9928647725,3.2258412989-1.0458976045,7.6169273901,7.8719641669,8.9421271623,16.9227916139.7495104093-3.6717839907.7834327502-19.2248062987,5.5422172086-14.4320993783,3.0079709124,3.2607541556,2.2510073111,11.7215309417,2.6645132191,15.4777493744,5.9096930505-2.7043782282,10.9636015532-3.366978131,7.3557257233,4.2920428683-3.1845158275,6.6401127033-6.2724392877,12.1206755767-8.5841106392,19.5246599916" style="fill: #eec3a3;"/>
    </g>
    <g>
      <path d="M99.8400090353,470.9493403227s5.7502082043,23.747867743-6.175599312,22.496455221c-6.0983455136-.632391686-36.6118626147-3.1953855553-52.8054472747-5.3305122227-19.4748660718-2.199257226.5028925144-12.7758472295,28.3684861544-20.2598091365,0,0,16.7861113892,1.6951266572,25.926325214,2.6187057445" style="fill: #2b3073;"/>
      <path d="M240.9235499803,435.4378482211s22.2364362094,10.1341139099,13.8893118597,18.743703305c-4.2605965022,4.4091616105-25.1089701228,26.8355436728-36.7809791028,38.2582113549-13.7489476363,13.9680813596-9.7423972788-8.2780418353,1.5643894172-34.8246265819,0,0,11.6937985128-12.1602929102,18.0630275374-18.7810921635" style="fill: #2b3073;"/>
    </g>
    <g>
      <path d="M238.3605264771,435.4465145128c-15.8890264164-38.6853357317-53.886257627-72.7663944855-53.886257627-72.7663944855-6.2169499028-20.7253128051,16.1017219703-62.3700633495,4.146972657-100.2536432945h-90.0385875621c-24.5191670852,75.8795740738-24.6303432246,142.6045728085-29.3987844078,205.3963131515,16.9505233191.6613618612,14.9944175269,1.7411818074,31.9328080379,2.5498706276,5.5060663927-14.0366688682,8.7484974497-86.6869350449,8.7484974497-106.394082379,0,0,10.5911986276-24.8697811061,29.246505286-55.9572550971,2.0722340982,32.5528201139,1.8400046596,45.5945986946,12.2038716688,70.4643798007,0,0,48.6971298943,64.6525169759,65.6280921555,77.4560963389l21.416882342-20.4952846625Z" style="fill: #5976ba;"/>
      <g>
        <path d="M175.6231482987,277.4716543471c-1.0651748436,14.4331734034-3.9251353273,28.6343248221-6.0121186462,42.9352334719-1.0082391354,6.9088888454-1.838335881,13.8516273275-2.1763339388,20.8287260247-.1716362824,3.5429886485-.2166295916,7.0928932507-.0969100222,10.6383586648.0973884673,2.8841353549.2202236918,5.7905014861.8306833348,8.6193683765,2.2346854861,10.3555212114,9.6072850214,18.849991313,16.8753611364,26.1581887889,3.7749557974,3.7957943744,7.733353381,7.4010485617,11.5870195866,11.1154370899,4.0725782077,3.9253886993,7.8786823952,8.1164691092,11.626050538,12.3511625426,4.8465765245,5.4768480172,9.5166858982,11.1339179113,13.6523912174,17.1719885838,1.9872274842,2.9013237321,3.849987544,5.8919134603,5.5016873333,8.9977053394.8202959545,1.5424525272,1.5882091865,3.1141624486,2.2830628941,4.7172448193.6240875713,1.4398193064,1.090181881,3.0028235671,2.1328677986,4.2113044955.4895529702.5673956251,1.3087146067-.2579191759.8220116331-.8220116331-.9587723385-1.1112244505-1.3739077396-2.6464902386-1.9510947602-3.976028872-.6414051963-1.4774639025-1.3435794841-2.928297322-2.0915853381-4.354622465-1.4307418664-2.7281913455-3.0292874067-5.3666967803-4.7313154402-7.9335569562-3.470495194-5.2339184366-7.3668385957-10.1795852791-11.4328985988-14.9609067422-3.9042609308-4.5910602823-7.9166632657-9.1571861303-12.1591770359-13.440289721-3.5827622838-3.6170399989-7.3563022199-7.0392800829-11.023927788-10.568864548-7.5771736408-7.2919860208-15.5721722485-15.3851728052-19.0239071389-25.5679621665-1.9580293943-5.7762839612-1.889734175-12.0774065457-1.7804406905-18.1086770278.1288971616-7.1130831787.829440909-14.2040590274,1.781848692-21.250324094,2.1085059548-15.5995069733,5.3890220737-31.0406620403,6.5492252335-46.7614739713.0550792701-.7463269168-1.1076795981-.7428192383-1.1625,0h0Z" style="fill: #4260ac;"/>
        <path d="M159.1200532285,277.0883566454c-.1629755623,4.1710874676,1.0884392842,8.3882428906,3.8169108388,11.5890112856,2.7386038329,3.2126545647,6.7654356732,4.8782880339,10.9631911297,4.7277483649.7458981962-.026749359.7494484104-1.1893766765,0-1.1625-3.9190469502.1405446403-7.5868398825-1.3907656813-10.1411794966-4.387259998-2.5284213117-2.9660895712-3.6268798846-6.9162933295-3.476422472-10.7669996525.029231459-.7481303984-1.1333186417-.7468481553-1.1625,0h0Z" style="fill: #4260ac;"/>
        <path d="M110.3768681852,278.2404782253c-.2961001656,4.2054139811-1.4051126702,8.7240467362-4.9296338323,11.4016705054-3.4072344588,2.5885195617-8.0130815345,2.9747893335-12.1408662721,2.9847557001-.7479310998.0018058489-.7493259658,1.1643092168,0,1.1625,3.6372216231-.0087819222,7.4395612069-.3331994684,10.7562666473-1.9471702015,2.9091829222-1.4156626743,4.9866158895-3.8767094468,6.1419216996-6.8744572253.8264214817-2.1443700354,1.1741248854-4.445115595,1.3348117575-6.7272987787.0525662541-.7465813458-1.1101654964-.7432898692-1.1625,0h0Z" style="fill: #4260ac;"/>
        <path d="M131.183766606,307.8827102399c-5.1752260106,9.6259401855-12.5539467444,17.7902745269-18.3969621169,26.9846920906-5.3438355223,8.4089210882-9.5101931108,17.7572640576-11.0469108177,27.6491227345-1.6517428087,10.6322757659-.9232662457,21.6023120328-.8311120751,32.3193434743.0998817259,11.6157043201.117296562,23.2441455344-.6092359653,34.8425881673-.8204295786,13.0974251603-2.6172451133,26.1748416727-6.4025336209,38.7673040732-.2158299063.7179981061.9058100584,1.0248224532,1.1209743765.3090385492,6.6311967193-22.0599024859,7.2004487662-45.3609694492,7.0926934926-68.2220021569-.0266811524-5.6605925467-.0997858416-11.3208209136-.1397956193-16.9813141088-.0384628293-5.4416344225-.1302714402-10.8968169626.3578152213-16.3230019707.9149724031-10.1719836424,4.3824517703-19.6008524761,9.4393153828-28.4314906122,6.0705486873-10.6008037496,14.6264843848-19.5524452869,20.4195364136-30.3275442308.3542355756-.6588795264-.6490089798-1.2466201538-1.0037846715-.5867360096h0Z" style="fill: #4260ac;"/>
      </g>
      <g>
        <path d="M66.9010389545,469.2934274239c10.9339811654,4.5946297691,23.4097286797,2.9498743253,34.9436071054,2.9326778062,1.9447052582-.0028994723,1.9481768694-3.0254046483,0-3.0225-11.2782483668.0168153856-23.4492271022,1.6677635805-34.1401068775-2.8247111851-.7584700904-.3187209858-1.654601456.3436308473-1.8590168034,1.0555165755-.2494421319.8686935494.3069041487,1.5444381619,1.0555165755,1.8590168034h0Z" style="fill: #4260ac;"/>
        <path d="M217.345394249,457.3990658648c5.6918454077-1.9251695945,10.9284287507-4.8635895775,15.2597480692-9.0579337625,3.6882268982-3.5715891409,6.5722595391-7.8504660715,9.3620712502-12.1318607769,1.0650328751-1.6344565816-1.550740566-3.1508646534-2.6098401459-1.525513625-2.5979859699,3.9870086329-5.2589539138,7.9502165901-8.6666096553,11.3025416469-3.9984169889,3.9334940135-8.8508704917,6.7062752856-14.148869746,8.4982331386-1.8327103792.619883016-1.0463151846,3.5402018805.8035002279,2.9145333789h0Z" style="fill: #4260ac;"/>
      </g>
    </g>
    <g>
      <path d="M67.1576905881,173.5038860367c-7.0511423603,3.6088914737-7.0511423603-26.9019027065-7.1623184996-62.8620611099-14.9580191026,5.2483062557-25.0171074331,6.0282725091-40.2388294052,3.437298898-1.1001238019,6.7862016206-.5004164312,14.771818013-.0239938969,22.7381209554,1.5836787558,26.5814975218,2.9546860687,36.0421167621,10.5547760924,61.8342389139,12.7671806153,34.6579861729,43.8125858896,19.9116718183,73.8593358077-3.8396624414l29.3960607162-87.7365467744c-36.3045806795-7.111558972-48.1457061475,48.188048389-66.3850308146,66.4286115585Z" style="fill: #e38354;"/>
      <path d="M160.8521867377,107.0752744783c50.7550027094,2.4736072606,49.6717162738,40.474553556,63.3288012204,61.402657587,18.783320164,28.7844688728,34.8077883359,56.2548803151,61.8827685841,86.0656857339-20.4373437959,16.9819700058-28.7844681457,20.148385386-28.7844681457,20.148385386-28.9706696084-23.3596178747-55.058930669-79.8801819325-78.6688518488-104.4874982042" style="fill: #e38354;"/>
      <path d="M92.6922994271,275.0606919951c6.3449634085-80.2488707424-18.2393246671-184.7098748549,63.8413780265-169.1571001552,49.2460499909,9.7218460332,38.3042379706,124.4390349643,36.4786217673,167.2131271219" style="fill: #e6925a;"/>
    </g>
    <g>
      <g>
        <path d="M112.3702549318,28.5779850933c-5.6484676326,37.9719761204-9.3625925546,71.9901423572,28.7579476034,73.6404519059,43.7642767812,1.6515475904,37.598334194-37.3200233759,34.7741136033-73.6404519059" style="fill: #eec3a3;"/>
        <path d="M141.8510556473,74.9163992244v38.3042665051c0,5.9841062049,9.3,5.9940178685,9.3,0v-38.3042665051c0-5.9841062049-9.3-5.9940178685-9.3,0h0Z" style="fill: #eec3a3;"/>
      </g>
      <path d="M147.5722092749,9.7112204461c-10.0058525399-4.9400338794-44.0470454919-15.7065394754-48.0852897155,8.8042095459-3.7891502454,22.972606048,16.4959409711,29.685020385,57.0418057275,23.4041873749,0,0-2.925767572,36.1981100128-1.6780692065,49.3644355857,1.7651997713,21.0358136564,10.4168823646,28.4435121964,28.3444681466,35.5005973348,13.4443893927,5.2931233643,39.6076757768,10.5887228119,54.1014292641,2.9537198209,14.4888013208-7.6362410326,19.2886887617-24.0898148528,6.364276858-35.8440300946-10.6298255268-11.5231966658-30.8544737689-4.4770062941-40.2316487637-17.1765901566-8.3372200166-11.2849974482-6.8696168778-28.8243338147-7.0798649264-41.1346773755-.5031401228-29.6018239847-28.1243443429-47.8676432043-48.7771073843-25.8718520354" style="fill: #6e2a6f;"/>
      <g>
        <path d="M140.9469532389,69.359572984c-.8705908817,6.2833090935-2.2054473787,11.7264831084-9.5368823664,11.4845697657-9.0337422437-.4823410354-10.8764434217-5.3983569064-9.7688913699-13.3958584988" style="fill: #fff;"/>
        <path d="M147.4127495115,74.4898457494c1.9467198318,0,1.9499442451-3.02543,0-3.02543-1.9467198318,0-1.9499442451,3.02543,0,3.02543h0Z" style="fill: #d977af;"/>
        <path d="M114.8948429942,72.8769250592c1.9467198318,0,1.9499442451-3.02543,0-3.02543-1.9467198318,0-1.9499442451,3.02543,0,3.02543h0Z" style="fill: #d977af;"/>
        <path d="M136.8507686666,59.4726856285c1.4974743189,0,1.4999546327-2.32725,0-2.32725-1.4974743189,0-1.4999546327,2.32725,0,2.32725h0Z" style="fill: #1d254f;"/>
        <path d="M123.8221403973,58.4342162741c1.4974743189,0,1.4999546327-2.32725,0-2.32725-1.4974743189,0-1.4999546327,2.32725,0,2.32725h0Z" style="fill: #1d254f;"/>
      </g>
      <path d="M162.3900820638,63.3194152749c5.3728531122-1.5354192816,15.7367472946-.3845357433,14.2013280518,7.2915702311-1.1511311175,5.3728532479-9.9793584488,6.1406866929-14.5833877022,4.2219697097" style="fill: #eec3a3;"/>
      <path d="M143.2923027206,8.4357864512c5.32905698.1729109045,10.4996728036,2.7266458171,14.4687299556,6.238257384,8.2280284382,7.0972433671,12.3171049841,18.2163081176,12.350255149,28.8841545108.024001956,5.3379534006-.9767609835,10.5897997141-2.6382600069,15.538011384.1410827637-5.2471466064.2907104492-10.3460540771-.2600708008-15.3763275146-1.6442962614-14.7071020542-9.1813050947-30.0503358598-23.9206542969-35.2840957642h0Z" style="fill: #c262a6;"/>
    </g>
    <g>
      <path d="M20.0739532043,115.4841049609c6.3903692017,2.3508050366,13.4401279078,2.679339898,20.1707330901,2.1280901064,6.8719698519-.5628278359,13.7054865007-2.0282612491,20.1709004826-4.4310952245,1.3902620459-.5166829051.7887208111-2.7647771168-.6180770984-2.241948753-6.2651990022,2.328425228-12.8905922591,3.8062352943-19.5528233842,4.3480439775-6.5510294429.5327651607-13.3319143787.2433658092-19.5526559917-2.0450388594-1.4063186479-.5173380217-2.0129018419,1.7288389578-.6180770984,2.241948753h0Z" style="fill: #ab6f44;"/>
      <path d="M257.8660244062,275.6957878567c10.1873421776-5.8105682406,21.3251436477-11.1952091638,29.0197437692-20.3301584243.9581531323-1.1375094364-.6784523439-2.7903390258-1.6440232663-1.6440232663-7.5702501418,8.9873222577-18.526370452,14.249881665-28.5491925222,19.9666123476-1.2995527096.7412276499-.1295406967,2.7507704814,1.1734720193,2.007569343h0Z" style="fill: #ab6f44;"/>
      <path d="M130.3713024609,113.2323266691c4.0291570793,9.8494389383,17.1579678089,13.0947482552,26.0230113822,7.7404728416,2.3670322442-1.4296311624,4.3175483771-3.4949753822,5.461657566-6.0229329166.6121678503-1.3526106987-1.3909056905-2.5360163826-2.007569343-1.1734720193-3.7379560953,8.2591717347-15.5244372167,9.3033220199-22.4494179288,4.6715686408-2.1242860857-1.4208226224-3.817036917-3.4656967177-4.7857329235-5.8337136449-.5588913825-1.3662327968-2.809067115-.7682668855-2.241948753.6180770984h0Z" style="fill: #ab6f44;"/>
      <path d="M92.6341114699,275.8545031852c26.5279608717,3.4351462813,53.5108799387,2.7452277155,80.0838237115.1789269886,7.1986037217-.6952102154,14.3805679838-1.5480363859,21.5465427104-2.5224672969,1.475811051-.2006811302.8474246644-2.4412280238-.6180770984-2.241948753-26.0681423691,3.5447520658-52.500721374,5.4520169299-78.8073762378,4.1955877663-7.4238055959-.3545675383-14.8337326825-.9805932655-22.2049130858-1.935098705-1.4795639105-.1915909967-1.4655526687,2.1352233404,0,2.325h0Z" style="fill: #ab6f44;"/>
    </g>
  </g>
</svg>